<svg xmlns="http://www.w3.org/2000/svg" enable-background="new 0 0 64 64" viewBox="0 0 64 64"><path fill="#22386f" d="M33.71 46.9c-1.85-.3-3.79.45-5.05 1.92l-1.25 1.47c-5.92-3.52-12.62-14.09-14.63-17.43l1.44-.48c1.84-.61 3.25-2.13 3.68-3.95.49-2.12.37-5.53-3.02-9.7-1.95-2.4-5.27-3.19-8.06-1.93-2.78 1.26-7.15 4.64-5.23 13.13.52 2.33 1.65 4.39 2.73 6.4.29.53.58 1.07.85 1.6 1.46 2.84 4.18 6.85 7.21 10.67 3.03 3.81 6.37 7.46 9.09 9.59 4.92 3.86 9.18 5.8 12.75 5.8 2.35 0 4.39-.83 6.13-2.49 2.2-2.12 2.7-5.49 1.2-8.19C38.96 48.62 35.85 47.23 33.71 46.9zM44.69 0C34.64 0 26.48 6.62 26.48 14.76c0 3.92 1.94 7.71 5.36 10.45l-.21 5.12c-.02.35.16.68.45.86.16.1.34.15.51.15.16 0 .32-.04.47-.12l5-2.72c2.09.67 4.32 1.02 6.63 1.02 10.04 0 18.2-6.62 18.2-14.77C62.89 6.62 54.72 0 44.69 0zM45.36 20.46c-.04.16-.12.3-.21.4-.11.11-.23.18-.41.22-.16.06-.37.08-.61.08-.26 0-.47-.02-.64-.08-.16-.04-.29-.12-.39-.22-.11-.1-.17-.24-.21-.4-.04-.17-.06-.39-.06-.64s.02-.47.06-.64c.04-.17.11-.32.21-.43.1-.11.23-.18.39-.22.17-.05.38-.08.64-.08.24 0 .45.03.61.08.17.04.3.12.41.22.1.11.17.25.21.43.04.17.06.39.06.64S45.4 20.29 45.36 20.46zM47.91 13.33c-.15.41-.35.76-.6 1.05-.26.29-.57.52-.93.7-.37.18-.77.29-1.21.35l-.07 1.78c-.01.1-.1.19-.27.24-.16.05-.4.08-.72.08-.2 0-.38 0-.5-.01-.15-.01-.24-.03-.33-.05-.08-.03-.14-.06-.16-.1-.05-.05-.07-.11-.08-.16l-.08-2.16c0-.19 0-.36.03-.48.02-.13.07-.22.14-.3.06-.07.14-.12.24-.15.09-.02.21-.04.34-.04h.14c.32 0 .6-.06.83-.16.23-.11.43-.24.57-.42.16-.17.27-.37.34-.6.07-.23.11-.48.11-.74 0-.29-.04-.56-.12-.81-.1-.24-.21-.45-.38-.63-.17-.17-.39-.31-.64-.41-.25-.09-.54-.14-.89-.14-.3 0-.57.03-.82.09-.23.06-.44.14-.6.2-.17.07-.32.15-.43.2-.12.06-.2.09-.27.09-.04 0-.08-.01-.11-.04-.04-.03-.07-.08-.09-.15-.04-.08-.06-.18-.07-.32-.02-.13-.02-.3-.02-.5 0-.21 0-.37.02-.47.02-.11.07-.18.13-.24.06-.07.17-.14.34-.21.17-.09.38-.16.62-.22.23-.08.49-.14.8-.18.29-.05.6-.08.91-.08.72 0 1.34.11 1.84.3.52.2.94.47 1.26.8.33.34.57.73.72 1.16.16.43.22.88.22 1.37C48.11 12.48 48.04 12.94 47.91 13.33z"/></svg>