<?xml version="1.0"?>
<svg version="1.1" xmlns="http://www.w3.org/2000/svg" width="390" height="63" style=""><path fill="#ffffff" d="M40.96,39.38c0,4.8-1.64,8.4-4.36,10.72c-2.48,2.08-5.96,3-9.92,3l-7.64,0c-0.8,0-1.16-0.2-1.16-1.12l0-25.36c0-0.84,0.24-1.2,1.24-1.2l5.76,0c4.6,0,7.72,0.52,10.36,2.04c3.6,2.08,5.72,6,5.72,11.92z M35.44,39.34c0-3.64-1.08-6.4-3.12-7.92c-1.64-1.2-3.76-1.64-6.32-1.64l-2.92,0l0,19l3.08,0c2.76,0,5.08-0.44,6.76-2.12c1.6-1.6,2.52-4,2.52-7.32z M65.06,52.3c0,0.6-0.12,0.8-0.64,0.8l-3.52,0c-0.56,0-0.68-0.16-0.68-0.8l0-11.12c0-2.16-0.6-3.76-3-3.76c-1.56,0-3.56,0.84-4.8,1.92l0,12.96c0,0.6-0.16,0.8-0.76,0.8l-3.44,0c-0.48,0-0.64-0.2-0.64-0.72l0-26.44c0-0.72,0.32-0.92,0.88-1l2.76-0.36c0.16-0.04,0.36-0.04,0.52-0.04c0.44,0,0.68,0.2,0.68,0.76l0,10.04c1.68-1.4,4.2-2.16,6.32-2.16c4.48,0,6.32,2.84,6.32,7.16l0,11.96z M89.72,51.98c0,0.84-0.24,1.12-1.04,1.12l-2.56,0c-0.52,0-0.92-0.28-0.96-0.8l-0.04-1c-1.84,1.48-4.04,2.28-6.36,2.28c-4.48,0-6.32-2.84-6.32-7.16l0-11.8c0-0.68,0.4-0.92,1.04-0.92l2.8,0c0.64,0,1,0.2,1,0.92l0,10.96c0,2.2,0.56,3.72,2.96,3.72c1.52,0,3.44-0.84,4.64-1.92l0-12.76c0-0.68,0.36-0.92,1-0.92l2.84,0c0.64,0,1,0.2,1,0.92l0,17.36z M101.94,52.1c0,0.68-0.32,1-0.88,1l-3.04,0c-0.56,0-0.92-0.28-0.92-0.96l0-26.24c0-0.68,0.28-0.88,0.8-0.96l2.88-0.4c0.08,0,0.2-0.04,0.28-0.04c0.48,0,0.88,0.24,0.88,0.88l0,26.72z M126.32,43.34c0,0.96-0.32,1.16-1.32,1.16l-11.72,0c0.32,3.08,2.56,5.2,5.72,5.2c1.68,0,3.44-0.4,4.92-0.96c0.16-0.04,0.28-0.12,0.44-0.12c0.28,0,0.48,0.16,0.56,0.48l0.56,2.04c0.04,0.2,0.08,0.36,0.08,0.48c0,0.28-0.16,0.48-0.64,0.68c-1.96,0.88-4.64,1.28-6.72,1.28c-6.28,0-10-4-10-10.24c0-6,3.96-10.16,9.92-10.16c2.44,0,4.44,0.92,5.84,2.4c1.84,1.92,2.36,4.44,2.36,7.16l0,0.6z M121.56,41.34l0-0.44c-0.08-2.08-1.28-4-3.72-4c-2.6,0-4.16,2.08-4.48,4.44l8.2,0z M149.58,26.1l0,0.24l-0.28,2.4c-0.08,0.72-0.52,0.84-1.36,0.84l-10.04,0l0,7.24l9.24,0c0.76,0,1,0.32,1,0.88l0,2.28c0,0.68-0.28,0.96-0.96,0.96l-9.28,0l0,11.16c0,0.72-0.28,1-0.96,1l-3.12,0c-0.8,0-1.08-0.2-1.08-1.08l0-25.6c0-0.64,0.28-1,0.92-1l15.08,0c0.6,0,0.84,0.2,0.84,0.68z M161.4,28.62c0,1.56-1.36,2.52-2.68,2.52s-2.72-0.88-2.72-2.48s1.32-2.56,2.72-2.56c1.36,0,2.68,0.92,2.68,2.52z M161.16,52.1c0,0.72-0.32,1-1,1l-2.8,0c-0.72,0-1.04-0.28-1.04-1l0-17.48c0-0.68,0.4-0.92,1.04-0.92l2.8,0c0.64,0,1,0.2,1,0.92l0,17.48z M186.1,51.78c0,6.48-2.76,10.08-9.48,10.08c-1.96,0-4-0.4-5.92-1.24c-0.44-0.2-0.64-0.44-0.64-0.8c0-0.2,0.08-0.36,0.12-0.52l0.56-1.76c0.16-0.44,0.32-0.72,0.6-0.72c0.2,0,0.4,0.08,0.6,0.16c1.44,0.6,3.08,1.04,4.48,1.04c4,0,4.84-2.12,4.84-5.32l0-1.6c-1.2,1.16-3.44,2.04-5.2,2.04c-2.48,0-4.48-0.8-5.88-2.28c-1.68-1.72-2.52-4.32-2.52-7.24c0-5.36,3.12-10.4,8.92-10.4c0.96,0,1.96,0.24,2.88,0.64c0.76,0.32,1.56,0.92,2.04,1.6l0.08-1.04c0.04-0.52,0.32-0.72,0.92-0.72l2.64,0c0.72,0,0.96,0.28,0.96,0.96l0,17.12z M181.26,47.3l0-8.24c-0.8-1.08-2.36-1.96-3.88-1.96c-1.24,0-2.24,0.48-2.96,1.16c-1.24,1.2-1.72,3.24-1.72,5.08c0,1.76,0.4,3.64,1.6,4.8c0.72,0.72,1.76,1.08,2.84,1.08c1.56,0,3.32-0.92,4.12-1.92z M211,52.3c0,0.6-0.12,0.8-0.64,0.8l-3.52,0c-0.56,0-0.68-0.16-0.68-0.8l0-11.12c0-2.16-0.6-3.76-3-3.76c-1.56,0-3.56,0.84-4.8,1.92l0,12.96c0,0.6-0.16,0.8-0.76,0.8l-3.44,0c-0.48,0-0.64-0.2-0.64-0.72l0-26.44c0-0.72,0.32-0.92,0.88-1l2.76-0.36c0.16-0.04,0.36-0.04,0.52-0.04c0.44,0,0.68,0.2,0.68,0.76l0,10.04c1.68-1.4,4.2-2.16,6.32-2.16c4.48,0,6.32,2.84,6.32,7.16l0,11.96z M230.5,51.9c0,0.4-0.2,0.6-0.6,0.76c-1.24,0.52-2.88,0.92-4.48,0.92c-2.04,0-3.8-0.52-4.8-1.68c-1.24-1.4-1.28-3.04-1.28-5.96l0-8.92l-1.88,0c-0.76,0-0.88-0.16-0.88-1l0-1.52c0-0.48,0.24-0.8,0.72-0.8l2.04,0l0-4.36c0-0.68,0.36-0.88,1-0.96l2.88-0.36l0.2,0c0.52,0,0.76,0.28,0.76,0.88l0,4.8l4.52,0c0.48,0,0.76,0.16,0.76,0.68l0,1.88c0,0.48-0.32,0.76-0.8,0.76l-4.48,0l0,9.16c0,1.2,0.08,2.08,0.52,2.72c0.36,0.52,0.92,0.84,1.88,0.84c1,0,1.84-0.24,2.56-0.48c0.16-0.04,0.28-0.08,0.4-0.08c0.28,0,0.44,0.16,0.52,0.48l0.4,2c0.04,0.12,0.04,0.16,0.04,0.24z M248.92,47.38c0,4.2-3.64,6.2-7.72,6.2c-2.08,0-4.36-0.6-6.16-1.4c-0.36-0.16-0.48-0.4-0.48-0.64c0-0.12,0.04-0.24,0.08-0.36l0.64-2.04c0.12-0.4,0.32-0.56,0.56-0.56c0.12,0,0.24,0,0.44,0.08c1.76,0.72,3.64,1.24,5.04,1.24c1.76,0,2.96-0.8,2.96-2.12c0-1.12-0.76-1.72-2.4-2.36l-3.16-1.2c-2.28-0.84-4.12-2.6-4.12-5.32c0-3.92,3.68-5.72,7.24-5.72c1.92,0,3.8,0.32,5.8,1.2c0.32,0.16,0.48,0.32,0.48,0.56c0,0.12-0.04,0.24-0.08,0.4l-0.68,2.16c-0.08,0.28-0.28,0.44-0.56,0.44c-0.12,0-0.28-0.04-0.4-0.08c-1.32-0.52-3.04-0.96-4.32-0.96c-1.68,0-2.52,0.92-2.52,1.84c0,0.88,0.44,1.44,1.96,2.04l3.6,1.48c2.12,0.88,3.8,2.52,3.8,5.12z M275.22,51.14c0,0.36-0.16,0.6-0.64,0.8c-2.64,1.08-5.04,1.64-7.96,1.64c-8.44,0-12.56-5.96-12.56-14.2c0-8.2,4.92-14.48,12.96-14.48c2.76,0,5.24,0.56,7.52,1.68c0.48,0.24,0.64,0.44,0.64,0.68c0,0.16-0.04,0.32-0.12,0.52l-0.92,2.52c-0.12,0.36-0.32,0.52-0.56,0.52c-0.12,0-0.28-0.08-0.44-0.16c-2-1.04-3.8-1.44-5.8-1.44c-5.56,0-7.72,5.12-7.72,9.96c0,6.16,2.88,10.08,7.8,10.08c1.92,0,3.88-0.44,5.76-1.28c0.2-0.08,0.36-0.16,0.48-0.16c0.28,0,0.48,0.2,0.64,0.6l0.8,2.16c0.08,0.2,0.12,0.4,0.12,0.56z M299.16,43.38c0,5.76-3.52,10.2-9.76,10.2c-6.52,0-9.52-4.4-9.52-10.24c0-5.76,3.52-10.16,9.76-10.16c6.52,0,9.52,4.32,9.52,10.2z M294.16,43.38c0-3.28-1.04-6.4-4.56-6.4c-3.56,0-4.72,3.08-4.72,6.28c0,3.28,1,6.52,4.56,6.52c3.52,0,4.72-3.12,4.72-6.4z M316.38,33.86c0,0.12,0,0.24-0.04,0.36l-0.44,2.84c-0.04,0.36-0.24,0.52-0.56,0.52l-0.16,0c-0.32-0.08-0.72-0.12-1.08-0.12c-1.36,0-2.84,0.72-3.84,1.92l0,12.72c0,0.64-0.28,1-0.96,1l-2.92,0c-0.64,0-0.96-0.32-0.96-1l0-12.48l0-4.92c0-0.8,0.4-1,1-1l2.56,0c0.64,0,1,0.2,1,0.76l0.04,1.28c1.24-1.56,2.6-2.56,4.84-2.56c0.32,0,0.76,0.08,1.12,0.16c0.28,0.08,0.4,0.2,0.4,0.52z M339.72,43.38c0,5.76-3.52,10.2-9.76,10.2c-6.52,0-9.52-4.4-9.52-10.24c0-5.76,3.52-10.16,9.76-10.16c6.52,0,9.52,4.32,9.52,10.2z M334.72,43.38c0-3.28-1.04-6.4-4.56-6.4c-3.56,0-4.72,3.08-4.72,6.28c0,3.28,1,6.52,4.56,6.52c3.52,0,4.72-3.12,4.72-6.4z M363.38,52.06c0,0.68-0.24,1.04-0.96,1.04l-2.88,0c-0.72,0-0.96-0.36-0.96-1.04l0-10.88c0-2.2-0.6-3.76-3.04-3.76c-1.56,0-3.48,0.84-4.72,1.92l0,12.76c0,0.68-0.28,1-0.96,1l-2.92,0c-0.6,0-0.96-0.32-0.96-0.96l0-17.44c0-0.64,0.28-1,1-1l2.6,0c0.56,0,0.92,0.16,0.96,0.76l0.04,1.04c1.84-1.48,4.16-2.32,6.48-2.32c4.48,0,6.32,2.8,6.32,7.16l0,11.72z M389.64,52.34c0,0.48-0.32,0.76-0.8,0.76l-1.92,0c-2.08,0-3-1-3.28-2.36l-0.08,0c-1,1.48-3.6,2.84-5.8,2.84c-5.64,0-8.2-4.64-8.2-9.84c0-6.92,4.16-10.56,8.64-10.56c2.12,0,4.12,0.96,5.12,2.32l0.08-1.08c0.04-0.44,0.36-0.72,0.84-0.72l2.8,0c0.52,0,0.84,0.28,0.84,0.88l0,13.88c0,0.56,0.08,0.96,0.24,1.16c0.12,0.12,0.28,0.16,0.48,0.16l0.32,0c0.48,0,0.72,0.16,0.72,0.68l0,1.88z M383.04,46.9l0-7.72c-0.8-1.16-2.44-2.04-3.96-2.04c-2.44,0-4.52,2.08-4.52,6.28c0,3.36,1.28,6.2,4.24,6.2c1.96,0,3.64-1.48,4.24-2.72z"/><path fill="#" d=""/></svg>
