<?xml version="1.0"?>
<svg version="1.1" xmlns="http://www.w3.org/2000/svg" width="282" height="51" style=""><path fill="#" d="M33.172,31.016c0,3.36-1.148,5.88-3.052,7.504c-1.736,1.456-4.172,2.1-6.944,2.1l-5.348,0c-0.56,0-0.812-0.14-0.812-0.784l0-17.752c0-0.588,0.168-0.84,0.868-0.84l4.032,0c3.22,0,5.404,0.364,7.252,1.428c2.52,1.456,4.004,4.2,4.004,8.344z M29.308,30.988c0-2.548-0.756-4.48-2.184-5.544c-1.148-0.84-2.632-1.148-4.424-1.148l-2.044,0l0,13.3l2.156,0c1.932,0,3.556-0.308,4.732-1.484c1.12-1.12,1.764-2.8,1.764-5.124z M50.042,40.06c0,0.42-0.084,0.56-0.448,0.56l-2.464,0c-0.392,0-0.476-0.112-0.476-0.56l0-7.784c0-1.512-0.42-2.632-2.1-2.632c-1.092,0-2.492,0.588-3.36,1.344l0,9.072c0,0.42-0.112,0.56-0.532,0.56l-2.408,0c-0.336,0-0.448-0.14-0.448-0.504l0-18.508c0-0.504,0.224-0.644,0.616-0.7l1.932-0.252c0.112-0.028,0.252-0.028,0.364-0.028c0.308,0,0.476,0.14,0.476,0.532l0,7.028c1.176-0.98,2.94-1.512,4.424-1.512c3.136,0,4.424,1.988,4.424,5.012l0,8.372z M67.304,39.836c0,0.588-0.168,0.784-0.728,0.784l-1.792,0c-0.364,0-0.644-0.196-0.672-0.56l-0.028-0.7c-1.288,1.036-2.828,1.596-4.452,1.596c-3.136,0-4.424-1.988-4.424-5.012l0-8.26c0-0.476,0.28-0.644,0.728-0.644l1.96,0c0.448,0,0.7,0.14,0.7,0.644l0,7.672c0,1.54,0.392,2.604,2.072,2.604c1.064,0,2.408-0.588,3.248-1.344l0-8.932c0-0.476,0.252-0.644,0.7-0.644l1.988,0c0.448,0,0.7,0.14,0.7,0.644l0,12.152z M75.858,39.92c0,0.476-0.224,0.7-0.616,0.7l-2.128,0c-0.392,0-0.644-0.196-0.644-0.672l0-18.368c0-0.476,0.196-0.616,0.56-0.672l2.016-0.28c0.056,0,0.14-0.028,0.196-0.028c0.336,0,0.616,0.168,0.616,0.616l0,18.704z M92.924,33.788c0,0.672-0.224,0.812-0.924,0.812l-8.204,0c0.224,2.156,1.792,3.64,4.004,3.64c1.176,0,2.408-0.28,3.444-0.672c0.112-0.028,0.196-0.084,0.308-0.084c0.196,0,0.336,0.112,0.392,0.336l0.392,1.428c0.028,0.14,0.056,0.252,0.056,0.336c0,0.196-0.112,0.336-0.448,0.476c-1.372,0.616-3.248,0.896-4.704,0.896c-4.396,0-7-2.8-7-7.168c0-4.2,2.772-7.112,6.944-7.112c1.708,0,3.108,0.644,4.088,1.68c1.288,1.344,1.652,3.108,1.652,5.012l0,0.42z M89.592,32.388l0-0.308c-0.056-1.456-0.896-2.8-2.604-2.8c-1.82,0-2.912,1.456-3.136,3.108l5.74,0z M109.206,21.72l0,0.168l-0.196,1.68c-0.056,0.504-0.364,0.588-0.952,0.588l-7.028,0l0,5.068l6.468,0c0.532,0,0.7,0.224,0.7,0.616l0,1.596c0,0.476-0.196,0.672-0.672,0.672l-6.496,0l0,7.812c0,0.504-0.196,0.7-0.672,0.7l-2.184,0c-0.56,0-0.756-0.14-0.756-0.756l0-17.92c0-0.448,0.196-0.7,0.644-0.7l10.556,0c0.42,0,0.588,0.14,0.588,0.476z M117.48,23.484c0,1.092-0.952,1.764-1.876,1.764s-1.904-0.616-1.904-1.736s0.924-1.792,1.904-1.792c0.952,0,1.876,0.644,1.876,1.764z M117.312,39.92c0,0.504-0.224,0.7-0.7,0.7l-1.96,0c-0.504,0-0.728-0.196-0.728-0.7l0-12.236c0-0.476,0.28-0.644,0.728-0.644l1.96,0c0.448,0,0.7,0.14,0.7,0.644l0,12.236z M134.77,39.696c0,4.536-1.932,7.056-6.636,7.056c-1.372,0-2.8-0.28-4.144-0.868c-0.308-0.14-0.448-0.308-0.448-0.56c0-0.14,0.056-0.252,0.084-0.364l0.392-1.232c0.112-0.308,0.224-0.504,0.42-0.504c0.14,0,0.28,0.056,0.42,0.112c1.008,0.42,2.156,0.728,3.136,0.728c2.8,0,3.388-1.484,3.388-3.724l0-1.12c-0.84,0.812-2.408,1.428-3.64,1.428c-1.736,0-3.136-0.56-4.116-1.596c-1.176-1.204-1.764-3.024-1.764-5.068c0-3.752,2.184-7.28,6.244-7.28c0.672,0,1.372,0.168,2.016,0.448c0.532,0.224,1.092,0.644,1.428,1.12l0.056-0.728c0.028-0.364,0.224-0.504,0.644-0.504l1.848,0c0.504,0,0.672,0.196,0.672,0.672l0,11.984z M131.382,36.56l0-5.768c-0.56-0.756-1.652-1.372-2.716-1.372c-0.868,0-1.568,0.336-2.072,0.812c-0.868,0.84-1.204,2.268-1.204,3.556c0,1.232,0.28,2.548,1.12,3.36c0.504,0.504,1.232,0.756,1.988,0.756c1.092,0,2.324-0.644,2.884-1.344z M152.2,40.06c0,0.42-0.084,0.56-0.448,0.56l-2.464,0c-0.392,0-0.476-0.112-0.476-0.56l0-7.784c0-1.512-0.42-2.632-2.1-2.632c-1.092,0-2.492,0.588-3.36,1.344l0,9.072c0,0.42-0.112,0.56-0.532,0.56l-2.408,0c-0.336,0-0.448-0.14-0.448-0.504l0-18.508c0-0.504,0.224-0.644,0.616-0.7l1.932-0.252c0.112-0.028,0.252-0.028,0.364-0.028c0.308,0,0.476,0.14,0.476,0.532l0,7.028c1.176-0.98,2.94-1.512,4.424-1.512c3.136,0,4.424,1.988,4.424,5.012l0,8.372z M165.85,39.78c0,0.28-0.14,0.42-0.42,0.532c-0.868,0.364-2.016,0.644-3.136,0.644c-1.428,0-2.66-0.364-3.36-1.176c-0.868-0.98-0.896-2.128-0.896-4.172l0-6.244l-1.316,0c-0.532,0-0.616-0.112-0.616-0.7l0-1.064c0-0.336,0.168-0.56,0.504-0.56l1.428,0l0-3.052c0-0.476,0.252-0.616,0.7-0.672l2.016-0.252l0.14,0c0.364,0,0.532,0.196,0.532,0.616l0,3.36l3.164,0c0.336,0,0.532,0.112,0.532,0.476l0,1.316c0,0.336-0.224,0.532-0.56,0.532l-3.136,0l0,6.412c0,0.84,0.056,1.456,0.364,1.904c0.252,0.364,0.644,0.588,1.316,0.588c0.7,0,1.288-0.168,1.792-0.336c0.112-0.028,0.196-0.056,0.28-0.056c0.196,0,0.308,0.112,0.364,0.336l0.28,1.4c0.028,0.084,0.028,0.112,0.028,0.168z M178.744,36.616c0,2.94-2.548,4.34-5.404,4.34c-1.456,0-3.052-0.42-4.312-0.98c-0.252-0.112-0.336-0.28-0.336-0.448c0-0.084,0.028-0.168,0.056-0.252l0.448-1.428c0.084-0.28,0.224-0.392,0.392-0.392c0.084,0,0.168,0,0.308,0.056c1.232,0.504,2.548,0.868,3.528,0.868c1.232,0,2.072-0.56,2.072-1.484c0-0.784-0.532-1.204-1.68-1.652l-2.212-0.84c-1.596-0.588-2.884-1.82-2.884-3.724c0-2.744,2.576-4.004,5.068-4.004c1.344,0,2.66,0.224,4.06,0.84c0.224,0.112,0.336,0.224,0.336,0.392c0,0.084-0.028,0.168-0.056,0.28l-0.476,1.512c-0.056,0.196-0.196,0.308-0.392,0.308c-0.084,0-0.196-0.028-0.28-0.056c-0.924-0.364-2.128-0.672-3.024-0.672c-1.176,0-1.764,0.644-1.764,1.288c0,0.616,0.308,1.008,1.372,1.428l2.52,1.036c1.484,0.616,2.66,1.764,2.66,3.584z M197.154,39.248c0,0.252-0.112,0.42-0.448,0.56c-1.848,0.756-3.528,1.148-5.572,1.148c-5.908,0-8.792-4.172-8.792-9.94c0-5.74,3.444-10.136,9.072-10.136c1.932,0,3.668,0.392,5.264,1.176c0.336,0.168,0.448,0.308,0.448,0.476c0,0.112-0.028,0.224-0.084,0.364l-0.644,1.764c-0.084,0.252-0.224,0.364-0.392,0.364c-0.084,0-0.196-0.056-0.308-0.112c-1.4-0.728-2.66-1.008-4.06-1.008c-3.892,0-5.404,3.584-5.404,6.972c0,4.312,2.016,7.056,5.46,7.056c1.344,0,2.716-0.308,4.032-0.896c0.14-0.056,0.252-0.112,0.336-0.112c0.196,0,0.336,0.14,0.448,0.42l0.56,1.512c0.056,0.14,0.084,0.28,0.084,0.392z M213.912,33.816c0,4.032-2.464,7.14-6.832,7.14c-4.564,0-6.664-3.08-6.664-7.168c0-4.032,2.464-7.112,6.832-7.112c4.564,0,6.664,3.024,6.664,7.14z M210.412,33.816c0-2.296-0.728-4.48-3.192-4.48c-2.492,0-3.304,2.156-3.304,4.396c0,2.296,0.7,4.564,3.192,4.564c2.464,0,3.304-2.184,3.304-4.48z M225.966,27.152c0,0.084,0,0.168-0.028,0.252l-0.308,1.988c-0.028,0.252-0.168,0.364-0.392,0.364l-0.112,0c-0.224-0.056-0.504-0.084-0.756-0.084c-0.952,0-1.988,0.504-2.688,1.344l0,8.904c0,0.448-0.196,0.7-0.672,0.7l-2.044,0c-0.448,0-0.672-0.224-0.672-0.7l0-8.736l0-3.444c0-0.56,0.28-0.7,0.7-0.7l1.792,0c0.448,0,0.7,0.14,0.7,0.532l0.028,0.896c0.868-1.092,1.82-1.792,3.388-1.792c0.224,0,0.532,0.056,0.784,0.112c0.196,0.056,0.28,0.14,0.28,0.364z M242.304,33.816c0,4.032-2.464,7.14-6.832,7.14c-4.564,0-6.664-3.08-6.664-7.168c0-4.032,2.464-7.112,6.832-7.112c4.564,0,6.664,3.024,6.664,7.14z M238.804,33.816c0-2.296-0.728-4.48-3.192-4.48c-2.492,0-3.304,2.156-3.304,4.396c0,2.296,0.7,4.564,3.192,4.564c2.464,0,3.304-2.184,3.304-4.48z M258.866,39.892c0,0.476-0.168,0.728-0.672,0.728l-2.016,0c-0.504,0-0.672-0.252-0.672-0.728l0-7.616c0-1.54-0.42-2.632-2.128-2.632c-1.092,0-2.436,0.588-3.304,1.344l0,8.932c0,0.476-0.196,0.7-0.672,0.7l-2.044,0c-0.42,0-0.672-0.224-0.672-0.672l0-12.208c0-0.448,0.196-0.7,0.7-0.7l1.82,0c0.392,0,0.644,0.112,0.672,0.532l0.028,0.728c1.288-1.036,2.912-1.624,4.536-1.624c3.136,0,4.424,1.96,4.424,5.012l0,8.204z M277.248,40.088c0,0.336-0.224,0.532-0.56,0.532l-1.344,0c-1.456,0-2.1-0.7-2.296-1.652l-0.056,0c-0.7,1.036-2.52,1.988-4.06,1.988c-3.948,0-5.74-3.248-5.74-6.888c0-4.844,2.912-7.392,6.048-7.392c1.484,0,2.884,0.672,3.584,1.624l0.056-0.756c0.028-0.308,0.252-0.504,0.588-0.504l1.96,0c0.364,0,0.588,0.196,0.588,0.616l0,9.716c0,0.392,0.056,0.672,0.168,0.812c0.084,0.084,0.196,0.112,0.336,0.112l0.224,0c0.336,0,0.504,0.112,0.504,0.476l0,1.316z M272.628,36.28l0-5.404c-0.56-0.812-1.708-1.428-2.772-1.428c-1.708,0-3.164,1.456-3.164,4.396c0,2.352,0.896,4.34,2.968,4.34c1.372,0,2.548-1.036,2.968-1.904z"/><path fill="#" d=""/></svg>
